<?xml version="1.0" encoding="utf-8"?>
<svg version="1.0" width="300.000000pt" height="300pt" viewBox="0 0 300.000000 300.000000" preserveAspectRatio="xMidYMid meet" xmlns="http://www.w3.org/2000/svg" xmlns:bx="https://boxy-svg.com">
  <defs>
    <linearGradient id="color-0" gradientUnits="userSpaceOnUse" bx:pinned="true">
      <stop style="stop-color: rgb(39, 69, 139);"/>
    </linearGradient>
  </defs>
  <g transform="translate(0.000000,303.000000) scale(0.100000,-0.100000)" fill="#1c4690" stroke="none">
    <path d="M0 1515 l0 -1515 1500 0 1500 0 0 1515 0 1515 -1500 0 -1500 0 0&#10;-1515z m1545 1186 c39 -10 82 -24 95 -31 37 -19 108 -96 127 -138 43 -96 66&#10;-261 40 -290 -8 -9 -17 -28 -20 -42 -27 -122 -136 -246 -232 -264 -19 -4 -35&#10;-11 -35 -16 0 -10 3 -11 110 -15 88 -3 217 -31 295 -65 11 -5 41 -18 67 -29&#10;26 -12 52 -21 57 -21 6 0 11 -6 11 -13 0 -13 -33 -30 -110 -56 -363 -123 -357&#10;-121 -461 -121 -84 0 -111 4 -186 31 -48 16 -101 34 -118 39 -40 11 -93 30&#10;-133 46 -18 8 -39 14 -47 14 -25 0 -85 33 -85 47 0 7 5 13 11 13 6 0 25 7 42&#10;15 117 54 270 96 367 100 85 3 92 4 85 15 -3 5 -23 14 -44 20 -21 5 -57 25&#10;-79 43 -38 30 -112 118 -112 132 0 10 -27 73 -51 117 -23 44 -26 134 -5 163 7&#10;11 17 39 21 62 13 80 79 172 150 211 23 13 115 41 165 51 3 0 37 -8 75 -18z&#10;m-632 -985 c18 -8 79 -29 137 -47 58 -18 143 -45 190 -61 46 -15 90 -28 98&#10;-28 8 0 27 -9 43 -21 26 -18 29 -27 31 -77 l1 -57 6 60 6 60 65 0 65 0 6 -60&#10;6 -60 1 57 c2 50 5 59 31 77 16 12 35 21 43 21 12 0 71 18 148 45 19 7 82 27&#10;140 45 58 17 119 38 137 46 18 7 54 16 81 20 45 6 51 4 57 -15 3 -12 2 -36 -3&#10;-54 -6 -17 -13 -59 -17 -91 -8 -73 -13 -86 -32 -86 -17 0 -68 -27 -97 -50 -25&#10;-21 -56 -84 -56 -115 0 -57 45 -118 107 -146 l43 -19 0 -74 0 -73 -37 -15&#10;c-49 -20 -100 -38 -138 -48 -16 -5 -111 -36 -210 -70 -277 -95 -273 -95 -550&#10;0 -99 34 -193 65 -210 70 -38 10 -89 28 -137 48 l-38 15 0 73 0 74 43 19 c102&#10;47 136 154 73 235 -25 33 -93 76 -120 76 -18 0 -23 14 -31 86 -4 32 -11 74&#10;-17 91 -5 18 -6 42 -3 54 6 19 12 21 57 15 27 -4 63 -13 81 -20z m-138 -175&#10;c0 -47 4 -65 15 -71 8 -4 33 -16 55 -26 22 -10 51 -30 63 -44 21 -21 23 -33&#10;20 -80 -4 -63 -20 -84 -82 -113 -36 -17 -41 -17 -85 -1 -25 9 -58 22 -73 30&#10;-14 8 -32 14 -40 14 -35 1 -88 74 -88 122 1 38 6 46 107 156 45 48 83 81 92&#10;80 13 -3 16 -17 16 -67z m1538 -14 c101 -109 106 -117 107 -155 0 -48 -53&#10;-121 -88 -122 -8 0 -26 -6 -40 -14 -15 -8 -48 -21 -73 -30 -44 -16 -49 -16&#10;-85 1 -66 31 -79 50 -79 118 0 68 13 87 80 119 22 10 47 22 55 26 11 5 15 25&#10;16 66 1 33 2 62 3 67 4 22 36 -2 104 -76z m-723 -1092 c0 -81 4 -132 12 -145&#10;7 -10 10 -22 7 -25 -3 -2 -42 -6 -87 -6 -75 -2 -83 0 -101 22 -36 45 -37 122&#10;-2 165 20 25 66 36 98 23 19 -7 24 -5 29 15 3 13 5 30 4 37 -4 29 1 39 20 39&#10;19 0 20 -7 20 -125z m-579 74 c16 -30 -3 -47 -34 -30 -33 17 -81 11 -85 -12&#10;-5 -24 36 -56 73 -57 36 0 75 -42 75 -79 -1 -14 -9 -36 -19 -48 -17 -20 -29&#10;-23 -87 -23 -49 0 -72 5 -86 17 -27 25 -22 43 12 43 17 0 30 -4 30 -9 0 -13&#10;52 -20 72 -10 10 5 18 18 18 27 0 20 -48 52 -77 52 -27 0 -73 47 -73 74 0 13&#10;9 35 21 50 18 23 27 26 84 26 55 0 66 -3 76 -21z m107 -6 c2 -12 12 -25 23&#10;-28 25 -8 25 -32 -1 -40 -17 -5 -20 -15 -20 -63 0 -49 3 -59 28 -78 15 -12 23&#10;-26 19 -30 -9 -9 -71 -9 -86 1 -6 3 -11 40 -11 86 0 62 -3 81 -15 85 -8 4 -15&#10;12 -15 19 0 7 7 15 15 19 8 3 15 17 15 31 0 22 4 26 23 23 14 -2 23 -11 25&#10;-25z m1000 -1 c2 -13 10 -26 18 -29 18 -7 18 -29 -1 -37 -11 -4 -15 -22 -15&#10;-70 0 -63 0 -64 32 -75 24 -9 29 -14 20 -23 -16 -16 -76 -15 -96 1 -12 10 -16&#10;32 -16 87 0 59 -3 75 -17 83 -17 9 -17 10 0 28 9 11 17 30 17 42 0 18 5 22 28&#10;19 19 -2 28 -9 30 -26z m-353 -32 c19 0 55 -62 55 -93 0 -25 -2 -26 -72 -29&#10;-79 -3 -95 -16 -54 -44 24 -15 28 -15 51 0 47 31 81 12 44 -25 -25 -25 -84&#10;-30 -120 -11 -29 16 -59 65 -59 98 0 27 26 73 50 89 20 13 62 23 78 19 8 -2&#10;20 -4 27 -4z m-535 -69 c0 -52 5 -74 18 -91 l19 -23 21 21 c18 18 22 34 22 93&#10;l0 70 28 -3 27 -3 3 -102 3 -101 -53 -2 c-92 -3 -100 -2 -116 13 -16 16 -30&#10;152 -19 181 4 9 16 16 27 16 18 0 20 -6 20 -69z m783 44 c14 -20 17 -40 15&#10;-102 -3 -76 -4 -78 -28 -78 -24 0 -25 2 -28 83 -3 77 -4 82 -25 82 -34 0 -57&#10;-47 -57 -114 0 -49 -2 -56 -20 -56 -19 0 -20 7 -20 104 l0 104 73 1 c65 0 74&#10;-2 90 -24z"/>
    <path d="M1456 405 c-20 -31 -20 -49 0 -80 24 -37 45 -39 71 -9 27 32 28 36 7&#10;80 -20 42 -54 46 -78 9z"/>
    <path d="M1689 421 c-28 -23 -17 -41 24 -41 44 0 59 11 44 31 -20 25 -44 29&#10;-68 10z"/>
  </g>
  <rect x="70.17" y="244.998" width="154.166" height="40.384" style="stroke: rgba(0, 0, 0, 0); fill: rgb(36, 69, 145);"/>
  <text style="fill: rgb(255, 255, 255); font-family: Arial, sans-serif; font-size: 36px; white-space: pre;" x="87.891" y="278.599">Student</text>
</svg>