<?xml version="1.0" encoding="utf-8"?>
<svg version="1.0" width="300.000000pt" height="300.000000pt" viewBox="0 0 300.000000 300.000000" preserveAspectRatio="xMidYMid meet" xmlns="http://www.w3.org/2000/svg">
  <g transform="translate(0.000000,300.000000) scale(0.100000,-0.100000)" fill="#1c4690" stroke="none">
    <path d="M0 1500 l0 -1500 1500 0 1500 0 0 1500 0 1500 -1500 0 -1500 0 0&#10;-1500z m1646 1103 c11 -16 21 -41 24 -58 l5 -30 78 -2 c111 -3 137 -25 137&#10;-118 0 -70 -17 -111 -56 -134 -34 -20 -49 -21 -344 -21 -295 0 -310 1 -344 21&#10;-39 23 -56 64 -56 134 0 92 26 114 137 118 l78 3 3 30 c2 16 15 41 30 57 26&#10;27 27 27 158 27 l132 0 18 -27z m-571 -195 c3 -7 1 -35 -3 -63 -6 -44 -11 -52&#10;-41 -67 -19 -9 -38 -23 -42 -30 -5 -7 -9 -280 -9 -605 0 -580 0 -593 20 -613&#10;19 -19 33 -20 339 -20 245 0 322 3 328 12 4 7 6 41 4 75 -8 159 83 250 242&#10;242 34 -2 68 0 75 4 9 6 12 107 12 447 0 241 -3 446 -6 455 -4 9 -23 23 -44&#10;31 -36 14 -38 18 -43 71 -3 31 -4 60 -1 65 3 4 40 8 82 8 67 -1 81 -4 107 -25&#10;l30 -25 0 -733 0 -733 -29 -27 -29 -27 -581 2 -581 3 -25 25 -25 25 0 733 0&#10;732 30 25 c26 21 40 24 108 25 53 0 79 -4 82 -12z m771 -352 l39 -34 -24 -26&#10;-24 -26 -356 0 c-349 0 -355 0 -377 21 -19 18 -21 25 -12 42 30 57 25 56 384&#10;57 l331 0 39 -34z m1 -228 c29 -27 29 -45 1 -75 l-21 -23 -343 0 -343 0 -25&#10;24 c-32 29 -32 43 -4 73 l21 23 346 0 c340 0 345 0 368 -22z m13 -243 l23 -25&#10;-23 -25 -23 -25 -354 0 c-340 0 -354 1 -373 20 -24 24 -25 38 -3 62 15 17 40&#10;18 373 18 l357 0 23 -25z m-276 -232 l25 -27 -21 -23 c-21 -23 -25 -23 -241&#10;-23 -191 0 -223 2 -239 17 -23 21 -23 38 2 63 19 19 33 20 235 20 l214 0 25&#10;-27z m-604 -963 c0 -77 0 -143 0 -147 0 -8 -9 -9 -99 -15 -40 -2 -47 1 -77 36&#10;-41 47 -44 88 -11 137 20 30 29 35 77 39 54 5 55 6 53 35 -4 43 3 55 32 55&#10;l25 0 0 -140z m420 125 c0 -16 -45 -21 -54 -6 -8 12 4 21 31 21 14 0 23 -6 23&#10;-15z m430 0 c0 -8 -9 -15 -20 -15 -11 0 -20 7 -20 15 0 8 9 15 20 15 11 0 20&#10;-7 20 -15z m-1138 -52 c9 -21 20 -50 23 -66 4 -15 11 -30 16 -33 5 -3 9 -13 9&#10;-22 0 -9 7 -30 15 -46 21 -39 19 -66 -4 -66 -23 0 -38 17 -43 49 -4 33 -28 45&#10;-70 37 -31 -6 -37 -11 -45 -44 -7 -30 -14 -38 -36 -40 -31 -4 -34 10 -13 60 8&#10;18 21 49 30 70 9 20 16 43 16 51 0 9 4 18 9 22 5 3 12 19 16 35 5 24 12 30 34&#10;30 22 0 30 -7 43 -37z m605 -42 c8 -10 12 -51 13 -104 0 -86 -1 -88 -22 -85&#10;-21 3 -23 10 -28 80 -7 91 -18 110 -49 79 -17 -17 -21 -33 -21 -92 l0 -70 -27&#10;3 c-28 3 -28 4 -31 86 -2 72 -5 82 -21 82 -30 0 -40 -22 -43 -95 -3 -68 -4&#10;-70 -30 -73 l-28 -3 0 105 0 106 75 0 c43 0 75 -4 75 -10 0 -5 7 -10 15 -10 8&#10;0 15 4 15 9 0 11 46 18 75 12 11 -2 25 -12 32 -20z m441 6 c16 -12 16 -47 -1&#10;-47 -7 0 -22 7 -34 15 -26 18 -53 10 -53 -16 0 -12 9 -21 28 -24 74 -16 106&#10;-70 63 -109 -28 -26 -117 -25 -136 0 -13 18 -14 18 -35 -1 -32 -29 -106 -27&#10;-132 4 -27 34 -9 49 34 28 48 -23 96 8 49 33 -11 5 -28 10 -37 10 -28 0 -54&#10;31 -54 65 0 43 16 55 75 55 54 0 75 -12 75 -42 0 -22 -9 -22 -45 -4 -33 17&#10;-55 11 -55 -15 0 -12 9 -21 28 -25 43 -9 71 -26 78 -46 3 -11 15 -18 30 -18&#10;13 0 24 -4 24 -9 0 -18 42 -24 58 -8 20 21 0 47 -36 47 -71 0 -86 108 -17 123&#10;26 5 77 -3 93 -16z m295 -18 c60 -64 19 -180 -65 -182 -51 -1 -80 17 -108 67&#10;l-23 43 23 39 c48 79 117 92 173 33z m400 8 c27 -31 5 -47 -34 -25 -34 20 -59&#10;14 -59 -12 0 -13 10 -21 32 -26 74 -16 103 -69 58 -109 -27 -25 -116 -24 -136&#10;1 -13 18 -15 18 -25 2 -5 -10 -21 -18 -34 -18 -25 0 -25 1 -25 85 0 83 -1 85&#10;-24 85 -32 0 -56 -52 -56 -119 0 -44 -3 -51 -20 -51 -19 0 -20 7 -20 104 l0&#10;104 74 1 c67 1 75 -1 89 -23 9 -13 17 -48 19 -77 3 -50 5 -54 26 -51 12 2 29&#10;-4 38 -12 19 -20 38 -20 54 -1 17 21 -3 43 -43 47 -63 6 -77 103 -17 119 38&#10;10 83 -1 103 -24z m-1031 -59 c4 -112 1 -128 -27 -128 -23 0 -24 3 -27 98 -2&#10;53 -2 100 0 105 2 4 14 7 27 7 23 0 24 -3 27 -82z m428 -23 c0 -98 -1 -105&#10;-20 -105 -19 0 -20 7 -20 105 0 98 1 105 20 105 19 0 20 -7 20 -105z"/>
    <path d="M1457 2512 c-24 -26 -21 -59 7 -77 19 -13 29 -14 45 -5 36 19 43 45&#10;20 74 -24 31 -49 33 -72 8z"/>
    <path d="M1840 1213 c-32 -13 -50 -46 -50 -94 0 -26 4 -50 8 -53 13 -8 145&#10;130 138 143 -7 11 -70 14 -96 4z"/>
    <path d="M851 391 c-29 -29 -28 -81 2 -110 29 -26 52 -20 64 17 13 38 2 82&#10;-24 99 -19 13 -24 12 -42 -6z"/>
    <path d="M630 390 c-13 -25 -5 -40 20 -40 24 0 33 15 25 40 -8 26 -31 26 -45&#10;0z"/>
    <path d="M1931 391 c-28 -28 -27 -80 0 -110 19 -20 23 -21 42 -8 32 21 32 103&#10;0 124 -19 13 -24 12 -42 -6z"/>
  </g>
  <rect x="39.044" y="241.375" width="211.927" height="45.504" style="stroke: rgba(0, 0, 0, 0); fill: rgb(38, 70, 146);"/>
  <text style="fill: rgb(255, 255, 255); font-family: Arial, sans-serif; font-size: 36px; white-space: pre;" x="58.354" y="276.398">Admissions</text>
</svg>