<?xml version="1.0" encoding="utf-8"?>
<svg version="1.0" xmlns="http://www.w3.org/2000/svg" width="300.000000pt" height="300.000000pt" viewBox="0 0 300.000000 300.000000" preserveAspectRatio="xMidYMid meet">
  <g transform="translate(0.000000,303.000000) scale(0.100000,-0.100000)" fill="#1c4690" stroke="none">
    <path d="M0 1525 l0 -1505 1500 0 1500 0 0 1505 0 1505 -1500 0 -1500 0 0 -1505z m2027 1073 c-3 -18 -8 -42 -12 -54 -5 -17 4 -27 58 -62 79 -51 128 -120 152 -212 16 -61 16 -68 -1 -130 -17 -65 -65 -151 -100 -181 -30 -26 -117 -68 -169 -83 -12 -4 -32 -32 -53 -75 -31 -67 -112 -161 -137 -161 -21 0 -65 -41 -65 -59 0 -10 -20 -39 -45 -63 -25 -25 -45 -52 -45 -60 0 -17 113 -128 130 -128 6 0 17 -15 25 -34 10 -24 23 -36 42 -41 68 -15 103 -79 103 -188 0 -50 5 -75 16 -88 24 -27 4 -51 -58 -67 -91 -24 -342 -36 -516 -25 -173 11 -238 25 -265 56 -16 18 -16 22 -2 37 10 12 15 38 15 88 0 39 5 74 10 77 6 3 10 15 10 25 0 28 47 78 80 85 22 5 34 16 45 41 8 19 18 34 24 34 12 0 113 86 125 107 12 22 -16 72 -54 98 -17 11 -30 29 -30 40 0 29 -12 43 -51 59 -19 8 -48 27 -63 43 -35 34 -90 118 -101 153 -12 39 -25 50 -61 50 -19 0 -42 4 -52 9 -9 5 -37 19 -62 31 -25 12 -54 29 -64 38 -36 32 -83 117 -100 182 -17 62 -17 69 -1 130 9 35 32 88 51 116 37 55 121 119 164 126 27 3 29 15 14 86 l-6 32 527 0 527 0 -5 -32z m-842 -2083 l0 -40 42 -1 c70 -1 83 -21 83 -126 0 -87 -1 -89 -22 -86 -21 3 -23 10 -28 80 -7 91 -18 110 -49 79 -22 -22 -25 -38 -22 -107 2 -23 -2 -44 -7 -48 -5 -3 -37 -6 -72 -8 -79 -3 -90 9 -90 104 0 52 -4 70 -15 74 -8 4 -15 12 -15 19 0 7 7 15 15 19 8 3 15 17 15 31 0 20 5 25 25 25 20 0 25 -5 25 -26 0 -17 6 -28 20 -31 11 -3 20 -11 20 -18 0 -7 -9 -15 -20 -18 -17 -4 -20 -14 -20 -71 0 -71 14 -91 46 -65 12 10 15 30 14 88 -2 42 -2 98 -1 124 1 47 2 48 29 45 24 -3 27 -7 27 -43z m215 -85 l0 -130 28 -11 c26 -10 26 -11 8 -25 -20 -14 -51 -11 -71 8 -10 9 -24 250 -17 276 2 6 15 12 28 12 l24 0 0 -130z m441 115 c0 -5 -12 -11 -26 -13 -18 -2 -25 1 -25 13 0 12 7 15 25 13 14 -2 26 -7 26 -13z m-933 -27 c7 -7 12 -19 12 -27 1 -9 9 -34 20 -56 11 -22 19 -48 20 -57 0 -9 5 -20 10 -23 6 -3 10 -17 10 -29 0 -13 7 -29 15 -36 19 -16 10 -30 -18 -30 -17 0 -28 11 -42 43 -18 37 -24 42 -57 45 -35 3 -38 1 -58 -42 -16 -37 -26 -46 -45 -46 -27 0 -31 10 -16 38 21 39 41 91 41 105 0 9 4 18 9 21 5 3 12 18 16 33 15 63 53 91 83 61z m820 -16 c2 -13 10 -26 18 -29 18 -7 18 -29 -1 -37 -11 -4 -15 -22 -15 -70 0 -57 2 -65 21 -71 31 -10 39 9 39 98 l0 78 28 -3 c22 -2 27 -8 24 -26 -1 -13 2 -31 7 -40 7 -13 11 -10 24 15 9 16 23 35 31 42 23 19 102 17 124 -2 23 -21 36 -21 51 -3 15 18 62 27 96 18 34 -9 53 -49 29 -59 -9 -3 -19 -1 -23 5 -4 6 -18 13 -31 14 -21 3 -25 -1 -25 -22 0 -21 6 -26 38 -31 61 -10 84 -56 48 -100 -15 -19 -27 -22 -71 -21 -34 0 -59 7 -71 18 -18 16 -20 16 -39 -1 -24 -22 -101 -25 -125 -5 -9 7 -23 27 -32 43 -13 27 -16 28 -25 13 -5 -9 -7 -23 -5 -30 10 -25 -10 -35 -75 -38 -89 -3 -98 6 -98 95 0 49 -5 76 -15 87 -14 15 -14 18 0 30 8 7 15 23 15 37 0 21 4 24 28 21 19 -2 28 -9 30 -26z m-145 -32 c19 0 57 -63 57 -93 0 -27 -1 -27 -69 -27 -39 0 -72 -4 -76 -10 -6 -10 29 -50 43 -50 5 0 17 7 28 15 42 32 79 10 43 -26 -16 -16 -34 -22 -64 -22 -135 0 -156 181 -25 214 14 4 31 5 38 3 8 -2 19 -4 25 -4z"/>
    <path d="M980 2393 c-29 -10 -82 -68 -101 -110 -32 -70 -19 -145 36 -214 30 -37 91 -71 122 -67 27 3 28 5 31 71 2 38 -4 106 -13 151 -8 45 -15 96 -15 113 0 58 -15 72 -60 56z"/>
    <path d="M1976 2368 c-3 -13 -6 -39 -6 -58 0 -19 -7 -67 -15 -105 -20 -94 -20 -194 0 -201 18 -7 83 31 110 65 76 95 71 194 -14 284 -40 42 -66 47 -75 15z"/>
    <path d="M1192 1054 c3 -37 5 -39 43 -46 22 -4 65 -12 95 -18 69 -15 346 -8 415 10 72 18 80 24 79 56 0 26 -3 29 -30 26 -235 -20 -300 -22 -414 -13 -69 5 -140 13 -158 17 l-33 6 3 -38z"/>
    <path d="M867 453 c-2 -5 -7 -20 -11 -35 -6 -28 0 -33 34 -28 22 3 22 4 4 38 -16 33 -20 37 -27 25z"/>
    <path d="M1932 413 c-28 -35 -28 -63 2 -98 24 -27 25 -28 50 -12 32 21 99 22 130 2 29 -20 58 -10 54 19 -2 15 -12 22 -36 26 -18 3 -45 17 -61 33 -16 15 -37 27 -48 27 -10 0 -27 7 -37 15 -26 20 -29 19 -54 -12z"/>
    <path d="M1509 421 c-28 -23 -17 -41 24 -41 44 0 59 11 44 31 -20 25 -44 29 -68 10z"/>
  </g>
  <ellipse style="fill: rgb(28, 70, 144); stroke: rgba(0, 0, 0, 0);" cx="148.87" cy="266.233" rx="99.619" ry="24.808"/>
  <text style="fill: rgb(255, 255, 255); font-family: Arial, sans-serif; font-size: 36px; white-space: pre;" x="81.036" y="276.311">Athletics</text>
</svg>