<?xml version="1.0" encoding="utf-8"?>
<svg version="1.0" xmlns="http://www.w3.org/2000/svg" width="300.000000pt" height="300.000000pt" viewBox="0 0 300.000000 300.000000" preserveAspectRatio="xMidYMid meet">
  <g transform="translate(0.000000,303.000000) scale(0.100000,-0.100000)" fill="#1c4690" stroke="none">
    <path d="M0 1515 l0 -1515 1500 0 1500 0 0 1515 0 1515 -1500 0 -1500 0 0 -1515z m1965 1065 c61 -17 206 -91 260 -134 55 -43 142 -134 171 -178 61 -95 108 -210 120 -293 9 -73 26 -95 74 -95 21 0 42 -4 45 -10 3 -5 -44 -93 -104 -194 -61 -101 -111 -189 -111 -195 0 -6 -10 -16 -22 -22 -24 -13 -41 3 -158 146 -54 67 -88 107 -142 168 -16 17 -28 39 -28 49 0 23 -27 35 -43 19 -8 -8 -6 -17 10 -34 12 -12 44 -44 70 -72 l48 -50 0 -100 0 -100 -222 -3 c-200 -2 -223 -1 -223 14 0 9 12 25 26 36 62 49 120 209 96 263 -7 14 -12 35 -12 45 0 32 -40 99 -91 152 -27 28 -47 53 -45 57 2 3 84 6 183 5 189 -1 223 -8 223 -48 0 -11 7 -27 15 -36 9 -9 17 -38 19 -64 4 -54 9 -61 32 -52 13 5 15 9 6 18 -7 7 -12 24 -12 38 0 14 -7 35 -15 46 -8 10 -15 27 -15 36 0 9 -6 23 -12 30 -7 7 -21 30 -32 50 -30 59 -192 208 -266 246 -117 58 -178 72 -320 72 -101 0 -141 -4 -196 -21 -38 -12 -74 -26 -81 -31 -6 -5 -25 -13 -41 -18 -47 -13 -32 14 50 92 50 47 97 79 164 112 51 25 101 46 111 46 10 1 32 7 48 15 40 18 347 15 420 -5z m14 -419 c25 -25 35 -57 19 -63 -7 -2 -283 -4 -613 -3 -418 1 -602 -2 -607 -9 -4 -6 -8 -44 -8 -83 0 -88 -11 -93 -57 -25 -28 40 -33 56 -33 105 0 107 -69 97 650 97 606 0 631 -1 649 -19z m-1319 -158 c25 -31 56 -68 70 -83 14 -15 39 -45 57 -66 17 -22 48 -57 67 -79 20 -22 42 -55 48 -72 11 -30 35 -43 51 -27 7 7 -57 89 -103 133 -23 23 -25 33 -28 124 -3 59 0 103 6 109 14 14 515 14 520 0 1 -5 -13 -25 -33 -43 -96 -89 -131 -193 -105 -308 16 -65 52 -133 86 -160 13 -10 24 -26 24 -35 0 -14 -23 -16 -194 -16 -107 0 -201 3 -210 6 -22 9 -58 88 -60 137 -2 29 -7 43 -18 45 -21 4 -33 -17 -19 -31 6 -6 11 -23 11 -37 0 -14 7 -35 15 -46 8 -10 15 -24 15 -31 0 -12 58 -102 107 -165 58 -76 191 -164 313 -208 41 -14 161 -33 205 -32 111 4 210 25 278 58 40 19 69 18 65 -3 -3 -17 -157 -148 -193 -164 -11 -5 -27 -13 -35 -18 -32 -18 -88 -40 -145 -58 -92 -28 -354 -25 -449 5 -131 42 -218 94 -314 189 -83 83 -139 156 -162 213 -6 14 -15 33 -20 42 -6 10 -10 23 -10 29 0 6 -6 25 -14 42 -7 18 -18 61 -24 95 -14 80 -26 95 -67 88 -53 -10 -59 11 -20 74 19 30 35 61 35 68 0 6 4 12 9 12 5 0 13 10 17 23 4 12 17 36 30 52 12 17 28 41 33 55 6 14 20 39 31 55 11 17 23 37 26 45 25 56 49 52 104 -17z m919 12 c14 -25 29 -36 55 -40 19 -4 42 -16 52 -26 16 -18 16 -21 -2 -57 -25 -49 -32 -53 -75 -46 -44 7 -64 -13 -22 -22 49 -10 106 -56 116 -94 20 -78 -29 -180 -87 -180 -27 0 -46 -18 -39 -35 8 -23 -16 -55 -42 -55 -25 0 -51 32 -40 51 10 16 -15 39 -43 39 -34 0 -101 32 -102 48 0 7 9 32 21 57 17 36 26 45 47 45 14 0 33 -7 43 -16 11 -10 25 -14 36 -10 16 7 15 9 -7 26 -14 11 -34 22 -45 26 -11 3 -32 18 -47 32 -25 23 -28 33 -28 86 1 69 12 88 78 130 23 14 42 31 42 36 0 18 39 50 54 44 8 -3 24 -21 35 -39z m707 -512 c16 -38 18 -116 4 -144 -10 -18 -28 -19 -644 -19 l-633 0 -32 36 c-20 21 -29 40 -24 45 5 5 278 10 628 11 l620 3 3 65 c4 92 7 98 38 64 15 -15 33 -43 40 -61z m-166 -958 c0 -16 -45 -21 -54 -6 -8 12 4 21 31 21 14 0 23 -6 23 -15z m220 -110 c0 -81 4 -132 12 -145 7 -10 10 -22 7 -25 -3 -3 -42 -6 -87 -7 -75 -2 -82 0 -101 23 -36 45 -37 122 -2 165 20 25 66 36 98 23 19 -7 24 -5 29 15 3 13 5 30 4 37 -4 29 1 39 20 39 19 0 20 -7 20 -125z m-1500 75 c21 -21 27 -60 10 -60 -6 0 -29 12 -51 27 l-40 26 -27 -20 c-61 -45 -66 -121 -11 -167 38 -32 49 -32 85 -1 36 31 54 32 54 2 0 -36 -38 -61 -92 -60 -123 2 -180 143 -96 238 28 33 34 35 89 35 46 0 64 -5 79 -20z m500 -6 c0 -17 6 -28 20 -31 26 -7 26 -29 0 -36 -19 -5 -21 -12 -18 -74 3 -65 4 -68 28 -68 33 0 41 -34 8 -37 -74 -5 -88 12 -88 104 0 53 -4 70 -15 75 -9 3 -21 -2 -28 -11 -11 -15 -15 -16 -41 -2 -34 17 -56 11 -56 -15 0 -12 9 -21 28 -25 67 -14 95 -51 72 -95 -26 -47 -128 -49 -149 -3 -14 32 4 41 44 20 20 -11 34 -12 47 -5 26 14 22 28 -9 40 -16 6 -36 15 -45 20 -37 19 -58 5 -58 -40 0 -33 -46 -64 -96 -64 -67 0 -98 33 -98 107 -1 47 3 60 26 82 22 22 35 27 73 26 54 0 79 -19 90 -65 l7 -32 12 35 c6 19 14 40 18 46 12 18 62 24 102 13 45 -13 76 2 76 36 0 20 5 25 25 25 20 0 25 -5 25 -26z m304 10 c11 -27 6 -61 -9 -74 -21 -17 -19 -47 4 -59 15 -9 20 -7 24 10 4 13 12 19 24 17 15 -3 17 -12 15 -56 -3 -40 0 -53 12 -58 9 -3 16 -12 16 -20 0 -17 -55 -19 -65 -4 -5 8 -11 7 -21 -1 -8 -6 -36 -11 -64 -11 -40 0 -54 4 -70 23 -19 24 -28 99 -12 99 18 0 29 44 18 71 -7 20 -6 35 2 53 10 23 17 26 66 26 40 0 55 -4 60 -16z m314 4 c7 -7 12 -19 12 -27 0 -9 7 -29 15 -45 8 -15 15 -33 15 -38 0 -6 6 -24 14 -41 8 -18 16 -41 18 -52 2 -11 10 -20 18 -20 12 0 15 16 15 85 l0 85 28 3 27 3 0 -105 0 -104 -58 -1 -58 0 -19 42 c-18 37 -24 42 -57 45 -35 3 -38 1 -58 -42 -16 -37 -26 -46 -45 -46 -30 0 -31 5 -6 56 11 22 23 54 27 70 4 16 10 34 14 39 3 6 14 31 24 58 14 37 23 47 40 47 12 0 27 -5 34 -12z"/>
    <path d="M2206 405 c-20 -31 -20 -49 0 -80 24 -37 45 -39 71 -9 28 32 29 47 6 85 -21 36 -55 38 -77 4z"/>
    <path d="M946 405 c-22 -34 -20 -58 8 -88 30 -32 47 -27 71 17 17 32 17 34 -1 64 -22 39 -55 42 -78 7z"/>
    <path d="M1562 473 c5 -26 38 -29 38 -4 0 15 -6 21 -21 21 -14 0 -19 -5 -17 -17z"/>
    <path d="M1551 362 c-13 -25 -5 -49 20 -63 42 -22 54 24 15 60 -24 23 -24 23 -35 3z"/>
    <path d="M1915 447 c-3 -9 -7 -25 -10 -34 -7 -20 10 -32 35 -26 16 4 17 9 7 31 -16 39 -26 48 -32 29z"/>
  </g>
  <rect x="43.204" y="240.725" width="209.915" height="41.205" style="fill: rgb(28, 70, 144); stroke: rgba(0, 0, 0, 0);"/>
  <text style="fill: rgb(255, 255, 255); font-family: Arial, sans-serif; font-size: 36px; white-space: pre;" x="63.03" y="276.877">Cost &amp; Aid</text>
</svg>