<?xml version="1.0" encoding="utf-8"?>
<svg version="1.0" xmlns="http://www.w3.org/2000/svg" width="300.000000pt" height="300.000000pt" viewBox="0 0 300.000000 300.000000" preserveAspectRatio="xMidYMid meet">
  <g transform="translate(0.000000,303.000000) scale(0.100000,-0.100000)" fill="#1c4690" stroke="none">
    <path d="M0 1515 l0 -1515 1500 0 1500 0 0 1515 0 1515 -1500 0 -1500 0 0 -1515z m1552 1127 c60 -21 102 -60 128 -119 24 -55 25 -75 4 -135 -21 -63 -75 -114 -141 -135 -51 -16 -56 -16 -108 2 -67 22 -119 72 -139 133 -21 60 -20 80 4 135 26 59 68 98 128 119 58 20 66 20 124 0z m-512 -152 c21 -11 50 -35 64 -53 23 -29 26 -44 26 -109 0 -73 -1 -76 -36 -111 -42 -42 -80 -52 -161 -44 -61 6 -75 15 -109 69 -18 28 -24 52 -24 93 0 75 31 123 100 157 47 23 93 22 140 -2z m1037 3 c72 -34 103 -81 103 -158 0 -41 -6 -65 -24 -93 -34 -54 -48 -63 -109 -69 -81 -8 -119 2 -161 44 -35 35 -36 39 -36 110 0 65 3 79 27 109 52 68 128 90 200 57z m-647 -380 c41 -63 57 -82 70 -83 3 0 14 17 25 37 11 20 25 41 30 47 6 6 18 23 28 39 17 27 19 27 119 27 157 0 148 20 148 -323 l0 -279 -34 -34 c-19 -19 -43 -34 -54 -34 -12 0 -22 -9 -26 -22 -3 -13 -6 -142 -6 -288 -1 -235 -3 -267 -18 -285 -29 -35 -65 -55 -98 -55 -36 0 -93 26 -101 46 -7 18 -27 18 -43 -1 -36 -43 -113 -57 -158 -28 -63 41 -61 33 -62 323 0 146 -3 275 -6 288 -4 13 -14 22 -25 22 -10 0 -34 14 -54 31 l-35 31 0 281 c0 348 -10 327 150 327 l106 0 44 -67z m-380 -13 c19 -19 20 -33 20 -278 l0 -259 30 -41 c16 -23 40 -46 52 -53 13 -7 26 -17 30 -23 4 -6 8 -77 8 -157 0 -215 -27 -278 -118 -279 -31 0 -53 7 -76 25 l-33 25 -23 -25 c-33 -35 -102 -35 -145 0 l-30 25 -3 237 -4 238 -38 24 c-63 39 -70 70 -70 296 l0 194 35 36 36 35 154 0 c142 0 157 -2 175 -20z m1245 -15 l35 -36 0 -194 c0 -226 -7 -257 -70 -296 l-39 -24 -3 -237 c-3 -234 -3 -237 -27 -262 -20 -21 -34 -26 -76 -26 -42 0 -56 5 -75 25 l-23 24 -32 -24 c-41 -32 -109 -34 -145 -4 -25 21 -25 22 -28 224 l-3 204 31 23 c69 50 70 57 70 342 0 243 1 257 20 276 18 18 33 20 175 20 l154 0 36 -35z m-897 -1657 c2 -119 4 -128 24 -139 21 -11 21 -12 3 -25 -20 -15 -65 -9 -77 10 -4 6 -8 73 -8 149 l0 138 28 -3 27 -3 3 -127z m-628 88 c0 -16 -62 -29 -115 -24 -29 3 -30 1 -30 -37 l0 -40 45 -1 c70 -2 72 -3 68 -21 -3 -15 -14 -18 -58 -18 l-55 0 0 -40 0 -40 45 -1 c89 -2 100 -4 100 -18 0 -11 -18 -15 -67 -18 -38 -2 -81 -1 -98 2 l-30 6 -3 119 c-1 65 0 125 2 132 8 20 196 19 196 -1z m157 -51 c25 -11 40 -12 47 -5 5 5 28 10 51 10 34 0 42 -4 52 -27 14 -32 20 -154 9 -171 -4 -7 -16 -12 -27 -12 -17 0 -19 7 -19 63 0 84 -7 107 -34 107 -27 0 -48 -51 -46 -108 3 -60 2 -64 -22 -60 -21 3 -23 9 -26 63 -3 85 -9 105 -31 105 -25 0 -53 -61 -50 -108 3 -56 1 -62 -21 -62 -19 0 -20 7 -20 105 l0 105 40 -2 c22 -1 43 2 47 5 9 9 8 9 50 -8z m364 -19 c32 -39 32 -117 -1 -162 -19 -26 -72 -39 -99 -24 -18 9 -21 7 -27 -13 -3 -14 -5 -31 -4 -38 4 -29 -1 -39 -20 -39 -19 0 -20 7 -20 149 l0 150 48 3 c68 5 104 -3 123 -26z m322 -4 c38 -36 39 -107 1 -151 -22 -27 -32 -31 -72 -31 -51 1 -68 10 -95 52 -22 35 -22 71 0 106 42 65 110 75 166 24z m394 4 c12 -11 23 -37 25 -56 l3 -35 -72 -3 c-78 -3 -90 -14 -54 -46 20 -18 61 -15 61 5 0 11 47 12 54 0 3 -4 -6 -19 -20 -32 -20 -19 -35 -24 -70 -22 -54 2 -71 15 -96 71 -23 50 -34 53 -43 10 -4 -18 -11 -39 -15 -48 -5 -8 -16 -37 -25 -63 -17 -48 -45 -70 -72 -60 -15 6 -17 33 -3 33 24 0 31 53 15 100 -9 25 -20 61 -25 80 -5 19 -14 36 -19 38 -6 2 -11 15 -11 28 0 21 4 25 26 22 22 -2 29 -11 39 -43 25 -81 35 -101 45 -85 6 8 10 25 10 37 0 12 8 38 17 58 12 26 23 35 41 35 19 0 23 -4 17 -17 -15 -37 -17 -53 -6 -53 6 0 14 8 18 18 22 61 110 77 160 28z m214 7 c9 -8 20 -28 24 -46 l7 -32 12 37 c16 51 29 61 80 61 46 0 76 -15 76 -39 0 -21 -16 -25 -45 -10 -33 17 -55 11 -55 -15 0 -12 9 -21 28 -25 69 -15 96 -50 72 -94 -26 -48 -127 -51 -149 -4 -14 32 4 41 44 20 20 -11 34 -12 47 -5 26 14 22 28 -9 40 -16 7 -38 16 -51 22 -17 8 -28 8 -42 -1 -11 -7 -42 -12 -69 -12 -82 0 -102 -16 -56 -46 24 -15 27 -15 44 0 19 17 56 22 65 7 3 -4 -6 -18 -19 -31 -37 -35 -107 -33 -143 4 -23 23 -27 34 -26 82 2 82 42 118 119 106 17 -3 37 -11 46 -19z"/>
    <path d="M1182 413 c-27 -33 -28 -63 -3 -91 24 -29 55 -28 75 3 22 34 20 58 -9 89 -30 33 -36 33 -63 -1z"/>
    <path d="M1511 421 c-13 -13 -21 -34 -21 -56 0 -22 8 -43 21 -56 18 -18 23 -19 42 -6 40 27 40 97 0 124 -19 13 -24 12 -42 -6z"/>
    <path d="M1907 422 c-27 -29 -20 -42 21 -42 57 0 69 13 36 39 -33 26 -37 26 -57 3z"/>
    <path d="M2125 418 c-26 -20 -26 -22 -9 -29 24 -10 79 -11 87 -2 7 7 -31 53 -43 53 -4 0 -20 -10 -35 -22z"/>
  </g>
  <rect x="46.678" y="243.009" width="209.113" height="47.786" style="fill: rgb(28, 70, 144); stroke: rgba(0, 0, 0, 0);"/>
  <text style="fill: rgb(255, 255, 255); font-family: Arial, sans-serif; font-size: 36px; white-space: pre;" x="62.606" y="276.09">Employees</text>
</svg>