<?xml version="1.0" encoding="utf-8"?>
<svg version="1.0" xmlns="http://www.w3.org/2000/svg" width="300.000000pt" height="300.000000pt" viewBox="0 0 300.000000 300.000000" preserveAspectRatio="xMidYMid meet">
  <g transform="translate(0.000000,303.000000) scale(0.100000,-0.100000)" fill="#1c4690" stroke="none">
    <path d="M0 1525 l0 -1505 1500 0 1500 0 0 1505 0 1505 -1500 0 -1500 0 0 -1505z m2408 1079 c68 -53 72 -72 72 -409 0 -337 -4 -356 -72 -409 l-35 -26 -511 0 c-485 0 -513 1 -543 19 -46 28 -69 73 -69 134 0 29 5 58 11 64 9 9 5 14 -16 19 -16 4 -40 13 -54 20 -14 8 -33 14 -41 14 -9 0 -26 7 -38 16 -12 8 -27 12 -32 9 -13 -8 -12 -535 1 -635 12 -91 16 -142 24 -335 7 -182 1 -198 -73 -193 -68 5 -79 32 -87 232 -3 87 -9 164 -13 170 -4 6 -9 62 -12 125 -5 119 -17 147 -39 93 -7 -16 -16 -118 -21 -228 -16 -357 -26 -394 -102 -394 -62 0 -77 26 -78 133 0 49 5 97 10 108 6 11 16 113 21 227 14 271 20 693 9 629 -5 -27 -16 -67 -24 -88 -9 -22 -16 -56 -16 -77 0 -20 -7 -59 -15 -86 -8 -27 -15 -61 -15 -76 0 -36 -47 -80 -86 -80 -25 0 -33 6 -46 34 -14 29 -15 38 -3 72 8 22 14 53 14 69 1 28 9 69 47 232 8 34 14 73 14 87 0 48 29 102 64 119 60 28 150 41 202 28 35 -9 55 -9 81 0 38 12 134 -2 183 -28 14 -7 30 -13 36 -13 6 0 25 -7 42 -16 18 -8 36 -13 42 -9 6 4 10 79 10 196 l0 190 45 44 44 45 517 0 517 0 35 -26z m-1453 -90 c39 -10 65 -64 65 -134 0 -61 -1 -65 -40 -102 -47 -44 -90 -50 -141 -19 -86 52 -92 178 -12 241 25 20 83 26 128 14z m803 -2087 c2 -101 6 -129 17 -133 17 -7 20 -30 5 -39 -6 -4 -26 -1 -45 5 l-35 12 0 144 0 145 28 -3 27 -3 3 -128z m-663 93 c9 -15 -45 -32 -87 -27 -40 5 -55 -5 -55 -38 0 -28 17 -46 41 -44 51 4 76 -2 76 -16 0 -9 -10 -15 -27 -16 -95 -3 -88 2 -88 -59 0 -52 -1 -55 -25 -55 l-25 0 -3 119 c-1 66 0 126 2 133 6 16 181 19 191 3z m774 -15 c5 -27 19 -35 62 -35 35 0 36 -1 58 -70 13 -38 26 -68 30 -66 3 2 15 34 26 70 18 60 22 66 48 66 30 0 34 -15 12 -44 -8 -11 -15 -29 -15 -41 0 -12 -4 -25 -9 -31 -4 -5 -16 -34 -25 -64 -33 -103 -44 -120 -82 -120 -24 0 -34 5 -34 15 0 8 4 15 10 15 5 0 17 11 25 24 15 22 15 29 -1 75 -9 28 -20 54 -25 57 -5 3 -9 15 -9 28 0 35 -23 60 -48 52 -19 -7 -22 -15 -22 -67 0 -54 2 -60 25 -69 53 -20 15 -56 -43 -41 -26 7 -27 9 -30 90 -2 61 -7 83 -17 88 -19 7 -19 29 0 37 8 3 15 17 15 31 0 22 4 26 22 23 13 -2 24 -11 27 -23z m-638 -53 c12 -12 18 -42 22 -103 l5 -87 -76 0 c-63 -1 -79 2 -94 18 -38 40 -9 100 48 100 18 0 39 3 47 6 18 6 11 40 -9 48 -17 7 -44 -3 -44 -15 0 -12 -27 -11 -35 1 -10 16 13 48 37 53 35 7 81 -3 99 -21z m212 0 c9 -8 17 -21 17 -29 0 -17 -44 -17 -59 1 -24 28 -71 -11 -71 -59 0 -49 47 -87 74 -59 21 21 56 18 56 -4 0 -24 -37 -44 -84 -45 -27 -1 -43 6 -66 28 -26 25 -30 36 -30 80 0 43 4 55 28 77 15 14 34 28 42 31 22 8 72 -3 93 -21z m98 6 c0 -7 0 -36 -1 -63 -1 -54 13 -105 29 -105 6 0 19 10 31 22 16 17 20 35 20 90 0 66 1 68 25 68 25 0 25 -1 25 -82 0 -46 3 -93 6 -105 6 -20 3 -22 -47 -23 -30 0 -64 -1 -77 -1 -48 -2 -62 26 -62 123 0 87 0 88 25 88 14 0 25 -6 26 -12z"/>
    <path d="M1394 2510 c-20 -8 -20 -16 -22 -208 l-2 -200 24 -16 c23 -14 27 -14 73 11 166 89 217 113 239 113 37 0 28 -24 -18 -49 -215 -113 -272 -148 -291 -178 -4 -7 -24 -15 -45 -19 -37 -7 -37 -7 -10 -16 19 -7 28 -17 30 -36 l3 -27 469 -5 c312 -3 477 -2 490 5 20 10 21 19 24 306 2 230 -1 299 -10 306 -16 13 -923 24 -954 13z m394 -42 c3 -15 -4 -18 -42 -18 -32 0 -46 4 -46 13 0 22 12 28 50 25 24 -2 36 -9 38 -20z m-140 -5 c-3 -16 -18 -18 -122 -21 -66 -1 -124 2 -129 7 -23 23 8 31 129 31 114 0 125 -2 122 -17z m230 -250 c2 -160 5 -213 15 -214 6 0 98 0 203 1 167 1 194 -1 208 -16 36 -35 17 -39 -228 -42 l-236 -2 -10 25 c-11 29 -14 423 -4 450 4 9 15 15 28 13 21 -3 21 -8 24 -215z m-90 165 c3 -16 -14 -17 -184 -20 -186 -3 -227 3 -210 31 5 8 61 11 199 9 172 -3 192 -5 195 -20z m403 -70 c20 -25 26 -88 8 -88 -7 0 -18 8 -25 18 -12 16 -14 16 -28 -3 -8 -11 -18 -32 -21 -48 -9 -36 -37 -50 -84 -42 -43 7 -55 -1 -86 -59 -21 -38 -47 -45 -53 -13 -2 9 13 44 33 77 31 51 41 60 65 60 16 0 30 -6 33 -12 3 -10 9 -10 23 -2 19 11 22 16 54 87 25 53 50 61 81 25z m-403 -26 c-3 -15 -23 -17 -192 -20 -191 -2 -232 4 -195 31 11 9 71 11 203 9 170 -3 187 -4 184 -20z"/>
    <path d="M1137 343 c-10 -10 -8 -41 3 -48 15 -9 47 4 54 22 10 24 -38 46 -57 26z"/>
  </g>
  <rect x="75.518" y="246.527" width="151.27" height="41.379" style="fill: rgb(28, 70, 144); stroke: rgba(0, 0, 0, 0);"/>
  <text style="fill: rgb(255, 255, 255); font-family: Arial, sans-serif; font-size: 36px; white-space: pre;" x="89.085" y="277.052">Faculty</text>
</svg>