<?xml version="1.0" encoding="utf-8"?>
<svg version="1.0" xmlns="http://www.w3.org/2000/svg" width="300.000000pt" height="300.000000pt" viewBox="0 0 300.000000 300.000000" preserveAspectRatio="xMidYMid meet">
  <g transform="translate(0.000000,303.000000) scale(0.100000,-0.100000)" fill="#1c4690" stroke="none">
    <path d="M0 1515 l0 -1515 1500 0 1500 0 0 1515 0 1515 -1500 0 -1500 0 0 -1515z m2284 1033 c44 -44 52 -91 27 -154 -11 -29 -26 -50 -36 -52 -19 -4 -195 163 -195 184 0 15 30 41 55 47 11 2 42 5 69 6 42 1 52 -3 80 -31z m-146 -152 c51 -51 92 -98 92 -104 0 -16 -800 -822 -815 -822 -19 0 -195 178 -195 198 0 18 798 822 816 822 6 0 52 -42 102 -94z m-304 -44 c3 -5 -38 -51 -90 -103 l-94 -94 -393 -5 -392 -5 -3 -480 c-1 -264 0 -490 3 -502 l5 -23 499 0 c446 0 500 2 505 16 3 9 6 176 6 373 l0 357 95 93 c52 51 99 90 105 86 7 -4 10 -187 10 -566 l0 -559 -26 -10 c-15 -6 -286 -10 -700 -10 -661 0 -674 0 -694 20 -20 20 -20 33 -20 713 0 382 3 697 7 700 9 10 1171 9 1177 -1z m-614 -723 c0 -6 30 -43 67 -81 95 -97 103 -118 43 -118 -16 0 -47 -6 -67 -14 -21 -8 -57 -17 -81 -20 -52 -8 -61 7 -38 64 9 22 16 51 16 64 0 32 36 116 50 116 5 0 10 -5 10 -11z m-50 -1115 c0 -16 -6 -17 -75 -18 l-50 -1 0 -40 c0 -39 1 -40 35 -41 19 0 49 -4 67 -8 26 -6 32 -4 37 12 19 59 115 77 162 30 21 -21 25 -34 25 -83 0 -77 -27 -108 -96 -108 -54 0 -79 20 -100 79 l-13 39 -59 0 -58 0 -3 -57 c-3 -57 -4 -58 -33 -58 l-30 0 3 133 3 132 75 5 c88 6 110 3 110 -16z m508 -57 c8 -6 17 -5 27 3 21 17 84 15 103 -4 13 -12 17 -37 17 -104 0 -80 -2 -87 -20 -87 -17 0 -20 8 -23 60 -3 78 -9 102 -26 108 -26 10 -56 -53 -56 -117 0 -54 -1 -57 -22 -54 -21 3 -23 10 -28 78 -6 96 -14 109 -46 79 -21 -20 -24 -32 -24 -91 l0 -69 -27 3 c-28 3 -28 3 -28 85 0 45 -3 84 -7 88 -3 4 -16 4 -28 0 -27 -9 -52 -66 -50 -114 3 -56 1 -61 -19 -61 -16 0 -20 9 -23 53 -1 28 -2 75 0 104 l3 51 111 1 c62 1 114 3 116 6 5 5 33 -5 50 -18z m313 7 c4 -2 9 -13 12 -24 6 -23 -20 -41 -32 -22 -4 6 -18 13 -31 14 -21 3 -25 -1 -25 -22 0 -21 6 -26 38 -31 61 -10 83 -53 48 -98 -16 -21 -27 -24 -71 -23 -56 1 -80 14 -80 43 0 23 23 24 55 3 31 -21 57 -11 53 18 -2 17 -11 24 -33 28 -68 11 -99 66 -57 103 25 23 91 29 123 11z"/>
    <path d="M1242 413 c-28 -35 -28 -63 1 -97 28 -32 51 -27 73 16 13 25 13 35 3 59 -10 25 -36 49 -51 49 -3 0 -14 -12 -26 -27z"/>
  </g>
  <rect x="57.596" y="240.808" width="181.377" height="46.498" style="fill: rgb(28, 70, 144); stroke: rgba(0, 0, 0, 0);"/>
  <text style="fill: rgb(255, 255, 255); font-family: Arial, sans-serif; font-size: 36px; white-space: pre;" x="97.349" y="275.948">Forms</text>
</svg>