 <svg  version="1.0" xmlns="http://www.w3.org/2000/svg"  width="300.000000pt" height="303.000000pt" viewBox="0 0 300.000000 303.000000"  preserveAspectRatio="xMidYMid meet">  <g transform="translate(0.000000,303.000000) scale(0.100000,-0.100000)" fill="#1c4690" stroke="none"> <path d="M0 1515 l0 -1515 1500 0 1500 0 0 1515 0 1515 -1500 0 -1500 0 0 -1515z m1617 1054 c131 -70 257 -196 320 -320 32 -64 62 -168 62 -223 1 -38 -23 -136 -40 -166 -4 -8 -17 -32 -28 -53 -24 -43 -99 -118 -156 -156 -22 -14 -42 -29 -45 -32 -10 -13 -49 -19 -55 -9 -3 5 -10 10 -14 10 -10 0 -81 -153 -81 -174 0 -9 -5 -36 -12 -61 -10 -36 -10 -50 0 -66 16 -25 8 -39 -23 -39 -32 0 -39 30 -32 125 5 66 3 75 -16 92 -23 20 -68 37 -127 48 -51 10 -112 41 -143 73 -30 31 -67 98 -67 120 0 8 -7 30 -16 50 -46 107 -73 153 -114 190 -56 51 -69 67 -62 74 5 5 22 2 38 -7 16 -8 36 -15 45 -15 9 0 30 -7 45 -15 16 -8 36 -15 44 -15 8 0 24 -7 34 -15 11 -8 25 -15 32 -15 16 0 124 -64 152 -90 12 -11 27 -20 34 -20 8 1 7 5 -4 14 -10 7 -18 16 -18 20 0 8 -41 68 -52 76 -3 3 -10 18 -13 33 -4 15 -11 30 -16 33 -5 3 -9 19 -9 35 0 16 -7 46 -15 66 -8 19 -15 43 -15 52 -1 9 -20 56 -44 104 -27 54 -39 90 -33 94 6 4 13 1 15 -5 2 -7 8 -12 12 -12 5 0 38 -21 73 -47 35 -27 90 -64 121 -83 38 -23 69 -53 94 -90 l37 -55 2 -121 c1 -132 -7 -164 -34 -126 l-15 22 -17 -32 c-16 -32 -16 -34 4 -63 40 -60 55 -106 55 -176 0 -49 4 -69 13 -69 15 1 47 63 47 93 0 12 -8 34 -17 47 -26 37 -26 268 0 294 9 10 17 23 17 30 0 7 11 33 24 57 14 24 32 57 41 74 26 49 48 175 36 202 -6 13 -11 34 -11 46 0 46 -104 197 -135 197 -8 0 -15 7 -15 15 0 23 34 18 97 -16z m-465 -1254 c17 -39 2 -44 -92 -36 -47 4 -90 4 -95 0 -6 -4 -10 -43 -10 -86 l0 -78 50 2 c127 7 125 6 114 53 -5 19 56 27 76 10 9 -8 15 -8 20 0 3 5 31 10 61 10 48 0 56 -3 66 -25 l11 -25 33 25 c28 21 43 25 106 25 60 0 77 -4 90 -19 28 -32 38 -58 38 -93 0 -59 -15 -68 -113 -73 -49 -2 -91 -5 -94 -8 -5 -6 26 -58 42 -69 18 -13 101 -8 121 7 25 19 58 19 74 0 10 -12 29 -15 74 -13 53 3 61 6 64 24 3 22 -17 39 -88 77 -63 34 -73 47 -67 94 7 66 18 73 106 73 65 0 81 -3 100 -21 12 -12 20 -28 17 -36 -3 -8 -6 -19 -6 -24 0 -5 -13 -9 -29 -9 -21 0 -32 6 -36 20 -12 38 -66 49 -79 15 -6 -17 30 -65 50 -65 19 0 83 -41 112 -72 28 -31 23 -58 -18 -108 l-29 -35 -89 0 c-57 0 -98 5 -115 14 -21 11 -29 12 -41 2 -21 -17 -125 -25 -158 -13 -14 6 -39 28 -55 48 -24 33 -28 47 -30 113 -1 42 -2 78 -2 81 -1 9 -64 30 -88 30 -37 0 -45 -23 -40 -117 3 -48 7 -101 9 -118 3 -29 2 -30 -42 -30 l-45 0 4 116 c3 117 -6 152 -29 110 -9 -19 -73 -44 -110 -44 -33 0 -39 -17 -35 -103 l4 -84 -50 0 -50 0 1 78 c1 42 1 83 1 90 -1 7 -14 12 -32 12 -39 0 -36 26 6 54 l30 20 -4 113 -3 113 141 0 141 0 12 -25z m828 -50 l0 -75 79 0 c79 0 79 0 100 -34 19 -29 21 -49 21 -165 l0 -131 -35 0 c-47 0 -55 23 -54 149 1 55 -2 104 -5 110 -4 6 -24 11 -44 11 -57 0 -65 -21 -61 -154 l4 -111 -42 -3 c-38 -3 -44 0 -55 23 -9 19 -9 28 0 37 16 16 16 321 1 350 -6 11 -8 31 -5 44 6 21 12 24 51 24 l45 0 0 -75z m-998 -694 c0 -132 -5 -238 -10 -243 -5 -5 -25 -8 -43 -6 l-34 3 -2 243 -2 243 46 -3 45 -3 0 -234z m331 37 c2 -112 8 -217 12 -235 6 -29 4 -34 -19 -44 -21 -10 -31 -10 -51 1 -19 10 -27 10 -39 1 -9 -7 -39 -11 -77 -9 -61 3 -64 4 -96 46 -30 40 -33 50 -33 113 0 114 40 159 171 192 43 11 55 19 57 37 2 12 -1 27 -7 33 -6 6 -11 21 -11 33 0 17 7 24 28 27 66 10 61 27 65 -195z m242 49 c27 -15 47 -37 61 -67 38 -80 9 -113 -104 -118 -43 -2 -81 -8 -86 -12 -12 -11 56 -80 79 -80 29 0 109 42 153 81 24 21 57 41 73 44 16 4 29 10 29 15 0 4 11 11 25 14 29 7 44 49 25 71 -21 26 -61 18 -91 -17 -22 -27 -31 -31 -45 -22 -56 34 -34 74 54 100 48 13 62 14 95 3 65 -21 67 -26 68 -167 0 -86 3 -120 9 -104 11 27 17 27 55 2 48 -32 105 -24 105 14 0 30 -9 40 -61 66 -121 59 -134 137 -33 181 44 18 48 18 97 2 46 -15 76 -36 77 -54 0 -4 -8 -17 -18 -29 -15 -19 -22 -21 -39 -11 -12 6 -25 20 -28 31 -6 20 -29 25 -59 14 -36 -14 -5 -54 74 -93 63 -32 80 -53 80 -100 0 -34 -6 -44 -37 -70 -32 -27 -46 -31 -94 -31 -38 0 -61 5 -69 15 -16 20 -37 19 -48 -2 -9 -15 -15 -15 -58 -3 -36 10 -49 11 -52 2 -2 -7 -24 -12 -55 -12 -42 0 -58 5 -79 25 -27 25 -48 32 -48 17 0 -18 -73 -42 -126 -42 -41 0 -63 5 -82 21 -51 39 -62 68 -62 154 0 75 2 83 30 117 17 20 43 39 60 43 16 4 32 11 35 16 10 16 48 10 90 -14z"/> <path d="M1767 1846 c-3 -8 -2 -18 3 -21 13 -8 20 9 11 24 -6 10 -10 9 -14 -3z"/> <path d="M1459 1150 c-20 -11 -55 -88 -45 -98 10 -9 112 -9 121 0 9 9 -16 80 -34 96 -17 14 -21 14 -42 2z"/> <path d="M1135 600 c-38 -24 -65 -102 -47 -131 7 -10 12 -25 12 -32 0 -24 45 -57 78 -57 49 0 62 28 62 136 0 75 -3 93 -16 98 -28 11 -58 6 -89 -14z"/> <path d="M1453 613 c-17 -6 -37 -83 -25 -95 5 -5 31 -8 58 -6 42 3 49 6 52 25 2 12 -4 35 -13 52 -15 30 -39 38 -72 24z"/> <path d="M1773 476 c-29 -16 -63 -47 -63 -57 0 -15 32 -39 51 -39 31 0 61 37 57 72 -3 36 -14 41 -45 24z"/> </g> </svg> 