<?xml version="1.0" encoding="utf-8"?>
<svg version="1.0" xmlns="http://www.w3.org/2000/svg" width="300.000000pt" height="300.000000pt" viewBox="0 0 300.000000 300.000000" preserveAspectRatio="xMidYMid meet">
  <g transform="translate(0.000000,303.000000) scale(0.100000,-0.100000)" fill="#1c4690" stroke="none">
    <path d="M0 1515 l0 -1515 1500 0 1500 0 0 1515 0 1515 -1500 0 -1500 0 0 -1515z m1086 909 c21 -17 46 -44 55 -60 24 -40 25 -141 2 -166 -37 -41 -103 -6 -103 56 0 84 -30 96 -237 96 -164 0 -212 -10 -232 -48 -15 -29 -15 -1055 0 -1084 20 -37 69 -48 218 -48 77 0 163 5 191 12 45 10 56 10 86 -7 45 -24 54 -58 23 -91 l-22 -24 -232 0 c-128 0 -246 3 -262 6 -38 8 -93 59 -115 107 -16 34 -18 85 -18 588 0 526 1 551 20 588 23 45 71 93 102 103 13 4 127 6 255 5 l231 -2 38 -31z m-140 -145 c19 -18 21 -25 12 -43 -6 -11 -18 -26 -27 -33 -14 -10 -14 -14 7 -35 27 -30 28 -42 2 -68 -18 -18 -33 -20 -139 -20 -118 0 -120 0 -140 27 l-21 26 20 22 c21 22 27 55 10 55 -5 0 -14 9 -21 21 -9 17 -7 25 12 45 21 23 29 24 143 24 109 0 122 -2 142 -21z m1118 -145 c49 -16 116 -67 116 -88 0 -6 7 -24 15 -40 12 -23 15 -61 14 -164 -1 -140 3 -155 42 -145 10 3 34 -2 53 -11 19 -9 37 -16 41 -16 3 0 21 -16 40 -37 36 -40 45 -68 45 -150 0 -50 3 -57 39 -91 38 -36 71 -109 71 -157 0 -38 -30 -112 -56 -136 -14 -13 -44 -31 -67 -39 -36 -14 -48 -14 -81 -2 -21 7 -51 22 -65 33 -27 21 -59 95 -60 140 -2 50 30 123 70 161 36 34 39 41 39 92 0 47 -4 57 -26 75 -30 23 -69 27 -81 9 -4 -7 -6 -43 -4 -80 5 -114 -41 -209 -117 -239 -13 -5 -119 -9 -236 -9 -183 0 -215 -2 -227 -16 -9 -11 -10 -20 -2 -32 8 -13 29 -18 94 -20 69 -2 88 -7 106 -24 29 -27 29 -34 -3 -63 l-27 -25 -232 0 -232 0 -27 25 c-32 29 -32 36 -3 63 18 17 37 22 106 24 65 2 86 7 94 20 8 12 7 21 -2 32 -12 14 -44 16 -227 16 -117 0 -224 4 -238 10 -35 13 -78 58 -98 101 -14 30 -16 80 -17 333 -2 271 0 300 17 339 24 52 61 87 115 108 36 14 104 16 501 18 403 1 465 0 510 -15z m-1199 -609 c27 -22 30 -30 29 -81 0 -55 -11 -75 -47 -87 -7 -2 -4 -13 6 -27 18 -26 22 -76 9 -98 -12 -18 -75 -26 -101 -13 -26 15 -30 85 -5 112 15 17 14 20 -15 45 -29 24 -32 31 -29 77 3 46 7 54 37 74 43 29 78 29 116 -2z m305 -1100 c5 -122 6 -130 25 -130 18 0 20 8 23 88 l3 87 72 0 c41 0 78 -6 87 -13 26 -21 50 -65 50 -92 0 -38 -46 -105 -73 -106 -12 -1 -35 -2 -52 -3 -28 -1 -30 -3 -30 -41 0 -36 -3 -40 -27 -43 -25 -3 -27 0 -30 40 -3 42 -4 43 -43 46 -22 2 -43 9 -47 15 -4 7 -8 74 -8 150 0 138 0 138 23 135 21 -3 22 -8 27 -133z m1065 61 c0 -41 4 -71 11 -73 6 -2 21 10 34 27 16 21 32 30 51 30 37 0 37 -15 -1 -47 -16 -13 -30 -33 -30 -42 0 -10 14 -37 30 -59 36 -50 37 -62 7 -62 -22 0 -67 46 -67 70 0 18 -30 11 -31 -7 -1 -10 -2 -27 -3 -38 -2 -31 -51 -33 -60 -3 l-6 23 -19 -24 c-16 -21 -27 -24 -71 -23 -56 1 -80 14 -80 43 0 23 22 24 54 4 29 -20 58 -10 54 19 -2 15 -12 23 -33 26 -46 8 -75 31 -75 61 0 38 32 62 83 62 54 0 67 -7 67 -39 0 -23 -25 -35 -32 -14 -1 5 -14 11 -28 12 -21 3 -25 -1 -25 -22 0 -20 6 -26 30 -28 17 -2 39 -12 51 -23 11 -11 24 -16 27 -12 4 3 7 53 7 110 l0 104 28 -3 c27 -3 27 -4 27 -72z m-1533 -10 c-4 -56 5 -66 58 -66 50 0 58 9 62 65 3 43 6 50 26 53 22 3 22 3 22 -133 0 -136 0 -136 -22 -133 -20 3 -23 10 -26 55 -3 51 -4 52 -37 59 -19 3 -47 3 -61 0 -24 -6 -26 -10 -22 -59 3 -50 2 -52 -24 -55 l-28 -3 0 136 0 136 28 -3 c26 -3 27 -5 24 -52z m1030 27 c15 -16 30 -45 33 -66 l7 -38 32 37 c29 34 37 37 80 37 28 -1 54 -8 65 -17 19 -18 43 -84 35 -98 -3 -4 -29 -8 -59 -8 -86 0 -107 -15 -60 -46 24 -15 27 -15 44 0 21 19 61 21 61 3 0 -27 -38 -49 -84 -49 -61 -1 -91 26 -101 90 l-8 47 -11 -42 c-6 -24 -23 -54 -37 -69 -24 -23 -34 -26 -98 -25 -40 0 -76 3 -82 6 -10 7 -13 248 -2 258 3 4 41 7 83 7 70 0 78 -2 102 -27z m-655 -62 c26 -29 38 -64 28 -80 -3 -6 -37 -11 -74 -11 -72 0 -83 -4 -74 -26 11 -28 42 -37 70 -19 16 11 34 14 50 10 l25 -6 -28 -26 c-32 -29 -87 -36 -125 -15 -25 13 -69 80 -69 104 0 13 11 30 50 78 31 37 110 32 147 -9z"/>
    <path d="M1083 2009 c-22 -14 -34 -31 -38 -52 -3 -18 -5 -152 -3 -298 l3 -267 25 -21 c24 -20 34 -20 483 -21 489 0 501 1 527 49 6 12 10 124 10 291 l0 272 -34 34 -34 34 -454 0 c-440 0 -454 -1 -485 -21z"/>
    <path d="M2345 1181 c-9 -15 14 -24 43 -16 20 5 23 8 11 16 -18 11 -46 12 -54 0z"/>
    <path d="M1296 424 c-9 -8 -16 -21 -17 -27 0 -7 -2 -19 -3 -27 -5 -24 11 -58 33 -70 17 -8 24 -7 41 10 28 28 26 80 -3 108 -28 26 -31 27 -51 6z"/>
    <path d="M1613 493 c-22 -4 -23 -9 -23 -98 l0 -93 31 -7 c26 -6 36 -2 65 26 28 27 34 40 34 75 0 35 -5 47 -35 73 -20 17 -39 30 -43 30 -4 -1 -17 -4 -29 -6z"/>
    <path d="M1855 418 c-26 -20 -26 -22 -9 -29 24 -10 79 -11 87 -2 7 7 -31 53 -43 53 -4 0 -20 -10 -35 -22z"/>
    <path d="M969 421 c-28 -23 -17 -41 24 -41 44 0 59 11 44 31 -20 25 -44 29 -68 10z"/>
  </g>
  <rect x="58.218" y="240.264" width="190.388" height="46.376" style="fill: rgb(28, 70, 144); stroke: rgba(0, 0, 0, 0);"/>
  <text style="fill: rgb(255, 255, 255); font-family: Arial, sans-serif; font-size: 36px; white-space: pre;" x="68.794" y="276.876">Help Desk</text>
</svg>