<?xml version="1.0" encoding="utf-8"?>
<svg version="1.0" width="300.000000pt" height="300.000000pt" viewBox="0 0 300.000000 300.000000" preserveAspectRatio="xMidYMid meet" xmlns="http://www.w3.org/2000/svg">
  <g transform="translate(0.000000,303.000000) scale(0.100000,-0.100000)" fill="#1c4690" stroke="none">
    <path d="M0 1515 l0 -1515 1500 0 1500 0 0 1515 0 1515 -1500 0 -1500 0 0&#10;-1515z m1605 804 c39 -12 84 -28 102 -35 17 -8 40 -14 50 -14 10 0 23 -4 29&#10;-10 5 -5 30 -14 54 -19 25 -5 61 -15 80 -21 19 -7 51 -18 70 -25 41 -15 163&#10;-53 270 -85 41 -12 82 -26 90 -30 9 -4 31 -11 50 -15 65 -14 103 -54 65 -69&#10;-12 -4 -15 -30 -15 -146 0 -116 3 -142 15 -146 10 -4 15 -21 15 -53 1 -25 7&#10;-57 15 -71 8 -14 14 -53 15 -90 0 -59 -3 -69 -29 -98 -39 -42 -87 -44 -128 -6&#10;-27 25 -28 30 -28 114 0 70 4 92 18 107 9 11 17 34 17 52 0 17 7 42 15 55 12&#10;18 15 48 13 137 l-3 114 -25 -1 c-14 -1 -70 -18 -125 -38 -55 -21 -116 -42&#10;-135 -47 -19 -6 -39 -15 -44 -20 -6 -5 -19 -9 -31 -9 -11 0 -29 -6 -40 -14&#10;-11 -7 -31 -16 -45 -19 -28 -6 -104 -32 -135 -47 -11 -5 -51 -19 -90 -31 -38&#10;-12 -74 -26 -80 -31 -5 -4 -16 -8 -25 -8 -8 0 -28 -7 -44 -15 -40 -21 -65 -19&#10;-169 15 -51 17 -117 38 -147 47 -30 9 -69 22 -87 30 -17 7 -36 13 -43 13 -15&#10;0 -102 28 -147 47 -17 7 -38 13 -47 13 -8 0 -33 6 -53 14 -21 7 -83 28 -138&#10;45 -55 17 -120 38 -145 46 -25 8 -56 15 -70 17 -32 4 -37 51 -5 56 11 2 36 9&#10;55 16 60 22 104 37 135 46 17 5 46 14 65 21 19 6 51 17 70 24 19 7 51 18 70&#10;24 19 7 49 17 65 21 17 5 136 45 265 89 254 87 246 86 365 50z m487 -575 c3&#10;-27 7 -133 7 -235 1 -180 0 -186 -21 -205 -55 -48 -200 -97 -368 -125 -102&#10;-17 -336 -23 -369 -10 -14 6 -60 15 -101 20 -117 15 -227 51 -284 94 l-36 28&#10;0 235 c0 128 3 234 7 234 13 0 266 -81 300 -96 17 -8 38 -14 46 -14 8 0 28 -7&#10;43 -15 16 -8 36 -15 45 -15 9 0 31 -7 49 -16 42 -22 150 -23 181 -2 13 8 35&#10;17 49 21 28 6 104 33 135 47 11 5 51 19 88 31 37 12 70 26 73 30 3 5 13 9 23&#10;9 11 0 38 9 62 20 24 11 49 18 54 16 6 -1 13 -25 17 -52z m-562 -1199 c0 -8&#10;-9 -15 -20 -15 -11 0 -20 7 -20 15 0 8 9 15 20 15 11 0 20 -7 20 -15z m-529&#10;-36 c30 -34 33 -75 10 -115 -26 -44 -26 -66 -1 -89 29 -26 26 -47 -7 -43 -18&#10;2 -35 15 -51 38 -43 65 -82 64 -82 -2 0 -35 -2 -39 -22 -36 -22 3 -23 7 -26&#10;122 -1 66 0 126 2 133 4 9 28 13 82 13 65 0 79 -3 95 -21z m807 -6 c2 -12 12&#10;-25 23 -28 25 -8 25 -32 -1 -40 -17 -5 -20 -15 -20 -66 0 -54 2 -60 25 -69 53&#10;-20 15 -56 -43 -41 -26 7 -27 9 -30 90 -2 61 -7 83 -17 88 -19 7 -19 29 0 37&#10;8 3 15 17 15 31 0 22 4 26 23 23 14 -2 23 -11 25 -25z m-600 -53 c11 -11 22&#10;-25 25 -32 4 -9 16 -2 36 21 30 34 32 35 103 33 39 -1 73 -4 74 -5 2 -1 4 -52&#10;5 -113 2 -153 -16 -183 -108 -184 -40 0 -58 5 -73 20 -11 11 -20 25 -20 30 0&#10;16 50 12 66 -5 21 -20 40 -19 64 5 28 28 18 38 -36 37 -49 0 -72 17 -94 71 -8&#10;20 -17 22 -74 22 -66 0 -80 -7 -70 -34 8 -22 35 -25 65 -8 27 15 59 11 59 -7&#10;0 -18 -53 -43 -95 -43 -62 -1 -94 36 -95 109 0 42 5 57 25 77 13 13 32 26 42&#10;28 34 6 81 -4 101 -22z m489 16 c1 -1 4 -13 8 -29 8 -31 -8 -36 -36 -11 -24&#10;22 -61 10 -57 -19 2 -17 11 -23 38 -25 38 -4 80 -36 80 -61 0 -9 -9 -27 -19&#10;-40 -16 -21 -28 -25 -70 -25 -43 0 -56 5 -78 27 -24 24 -25 27 -9 33 11 4 32&#10;0 52 -11 40 -21 67 -14 62 17 -2 17 -12 24 -38 28 -40 7 -80 37 -80 60 1 23&#10;34 58 61 62 19 4 77 -1 86 -6z m306 4 c19 0 57 -63 57 -93 0 -27 -1 -27 -69&#10;-27 -39 0 -72 -4 -76 -10 -6 -10 29 -50 43 -50 5 0 17 7 28 15 42 31 79 10 45&#10;-26 -23 -25 -87 -30 -124 -10 -28 15 -57 65 -57 97 0 27 26 73 50 89 20 13 62&#10;23 78 19 8 -2 19 -4 25 -4z m-473 -105 c0 -98 -1 -105 -20 -105 -19 0 -20 7&#10;-20 105 0 98 1 105 20 105 19 0 20 -7 20 -105z m675 95 c3 -5 -7 -16 -23 -24&#10;-37 -19 -52 -54 -52 -121 0 -48 -2 -55 -20 -55 -19 0 -20 7 -20 104 l0 104 55&#10;1 c30 0 57 -4 60 -9z"/>
    <path d="M888 493 c-14 -3 -18 -15 -18 -53 0 -43 3 -48 26 -54 36 -9 59 0 73&#10;31 10 23 9 30 -7 52 -19 26 -42 33 -74 24z"/>
    <path d="M1130 433 c-9 -2 -21 -12 -28 -23 -10 -17 -9 -20 12 -26 35 -8 71 -1&#10;71 15 0 17 -35 39 -55 34z"/>
    <path d="M1338 433 c-9 -2 -22 -18 -29 -34 -15 -37 -4 -75 28 -96 19 -13 23&#10;-12 42 8 28 30 27 80 -1 106 -13 11 -30 18 -40 16z"/>
    <path d="M1929 421 c-28 -23 -17 -41 24 -41 44 0 59 11 44 31 -20 25 -44 29&#10;-68 10z"/>
  </g>
  <rect x="70.272" y="240.339" width="166.366" height="51.696" style="stroke: rgba(0, 0, 0, 0); fill: rgb(36, 68, 143);"/>
  <text style="fill: rgb(255, 255, 255); font-family: Arial, sans-serif; font-size: 36px; white-space: pre;" x="82.491" y="276.525">Register</text>
</svg>