<?xml version="1.0" encoding="utf-8"?>
<svg version="1.0" xmlns="http://www.w3.org/2000/svg" width="300.000000pt" height="300.000000pt" viewBox="0 0 300.000000 300.000000" preserveAspectRatio="xMidYMid meet">
  <g transform="matrix(0.1, 0, 0, -0.1, -508.726646, 752.46738)" fill="#1c4690" stroke="none">
    <path d="M0 1525 l0 -1505 1500 0 1500 0 0 1505 0 1505 -1500 0 -1500 0 0 -1505z m1719 1089 c31 -9 75 -25 99 -36 55 -24 163 -131 189 -188 43 -93 66 -221 43 -235 -17 -10 -11 -25 13 -34 34 -13 86 -59 102 -92 24 -45 18 -108 -13 -154 -15 -22 -39 -46 -52 -52 -20 -10 -150 -12 -585 -11 -541 3 -561 4 -590 23 -106 71 -155 210 -108 306 20 41 76 99 95 99 8 0 23 7 34 15 22 17 169 21 179 5 9 -15 35 -12 35 4 0 8 6 27 14 43 8 15 22 46 32 68 21 51 146 175 204 202 25 12 64 24 87 28 24 4 45 11 49 16 9 15 113 10 173 -7z m-189 -884 c10 -5 23 -25 29 -43 28 -85 -63 -151 -133 -96 -34 27 -37 91 -4 126 23 25 74 31 108 13z m359 -7 c14 -13 21 -32 23 -62 2 -37 -2 -47 -27 -68 -55 -48 -135 -10 -135 64 0 69 86 110 139 66z m-770 -79 c37 -47 27 -102 -25 -134 -32 -21 -35 -21 -70 -4 -56 27 -71 90 -33 138 16 21 29 26 64 26 35 0 48 -5 64 -26z m861 -206 c28 -33 25 -78 -6 -112 -24 -25 -32 -28 -70 -23 -52 5 -83 37 -83 82 0 30 23 67 49 78 30 13 90 -1 110 -25z m-674 -29 c31 -19 34 -25 34 -67 0 -59 -28 -92 -79 -92 -50 0 -81 32 -81 84 0 46 5 55 40 79 32 22 46 21 86 -4z m395 -58 c33 -33 36 -60 12 -101 -42 -72 -163 -39 -163 45 0 18 10 41 25 58 36 38 86 37 126 -2z m-587 -254 c10 -7 20 -32 23 -55 5 -36 2 -47 -17 -67 -34 -36 -101 -35 -129 1 -27 34 -27 74 0 108 16 21 29 26 63 26 23 0 50 -6 60 -13z m345 -64 c17 -21 31 -45 31 -53 0 -8 -14 -32 -31 -53 -38 -47 -79 -50 -121 -10 -39 37 -38 84 1 124 42 42 81 39 120 -8z m429 17 c19 -15 24 -30 25 -66 0 -41 -4 -51 -29 -71 -35 -27 -56 -29 -92 -6 -37 24 -42 32 -42 75 0 72 84 113 138 68z m-156 -532 l3 -43 43 -1 c66 -1 76 -18 77 -122 0 -80 -2 -87 -20 -87 -18 0 -20 8 -23 70 -2 47 -8 75 -19 87 -16 18 -17 17 -40 -4 -20 -18 -23 -31 -23 -90 l0 -68 -57 -1 c-32 -1 -65 -1 -73 1 -28 3 -40 33 -40 99 0 47 -5 70 -17 84 -17 18 -17 19 0 28 9 6 17 21 17 34 0 20 5 25 25 25 20 0 25 -5 25 -26 0 -17 6 -28 20 -31 26 -7 26 -29 0 -36 -19 -5 -21 -12 -18 -74 3 -65 4 -68 27 -65 14 1 27 5 30 8 3 3 5 58 4 121 -2 63 0 119 3 124 3 5 16 9 29 9 21 0 24 -5 27 -42z m-888 -35 c34 -93 55 -138 63 -136 26 8 20 131 -7 148 -20 12 -10 35 15 35 19 0 28 -8 39 -32 14 -34 15 -33 31 17 5 16 55 22 55 7 0 -5 -7 -24 -17 -42 -18 -38 -22 -115 -6 -131 13 -13 29 15 64 114 22 61 26 67 51 67 29 0 34 -9 19 -38 -31 -57 -51 -105 -52 -120 -1 -36 -44 -107 -67 -110 -18 -3 -26 5 -43 43 -19 44 -39 52 -39 17 -1 -47 -62 -80 -80 -42 -4 8 -14 30 -23 48 -9 19 -17 38 -17 44 0 11 -23 66 -46 111 -20 40 -18 47 15 47 25 0 30 -6 45 -47z m469 -41 c17 -16 27 -36 27 -53 0 -32 17 -48 26 -25 4 10 18 16 39 16 47 0 65 9 58 28 -13 33 -34 39 -58 16 -15 -16 -45 -13 -45 4 0 28 29 45 75 44 70 -2 82 -18 88 -125 l5 -87 -37 0 c-20 1 -54 1 -76 0 -25 0 -44 5 -51 15 -15 20 -51 19 -62 -1 -11 -20 -82 -23 -115 -5 -28 15 -57 65 -57 100 0 32 52 98 83 104 36 8 70 -3 100 -31z m755 -8 c21 -23 32 -43 30 -57 -3 -20 -10 -22 -77 -27 -81 -5 -98 -19 -57 -46 24 -15 28 -15 51 0 47 31 81 12 44 -25 -25 -25 -86 -30 -122 -10 -28 15 -57 65 -57 97 0 46 40 93 90 105 38 10 62 1 98 -37z m152 21 c0 -8 -9 -16 -19 -20 -26 -8 -53 -68 -51 -113 3 -57 1 -62 -20 -62 -19 0 -20 7 -20 104 l0 105 55 0 c40 0 55 -4 55 -14z"/>
    <path d="M1209 421 c-28 -23 -17 -41 24 -41 44 0 59 11 44 31 -20 25 -44 29 -68 10z"/>
    <path d="M1197 343 c-12 -12 -7 -22 18 -39 23 -15 27 -15 50 0 14 10 36 16 48 14 14 -2 23 3 25 15 3 15 -5 17 -66 17 -38 0 -72 -3 -75 -7z"/>
    <path d="M1407 343 c-10 -10 -8 -41 3 -48 15 -9 47 4 54 22 10 24 -38 46 -57 26z"/>
    <path d="M1959 421 c-28 -23 -17 -41 24 -41 44 0 59 11 44 31 -20 25 -44 29 -68 10z"/>
  </g>
  <rect x="-9.441" y="237.066" width="334.986" height="77.801" style="fill: rgb(28, 70, 144); stroke: rgba(0, 0, 0, 0);"/>
  <text style="white-space: pre; fill: rgb(51, 51, 51); font-family: Arial, sans-serif; font-size: 28px;" x="240.346" y="222.808"> </text>
  <text style="white-space: pre; fill: rgb(51, 51, 51); font-family: Arial, sans-serif; font-size: 28px;" x="334.731" y="220.269"> </text>
  <g transform="matrix(0.026842, 0, 0, -0.026842, 29.211032, 237.242076)" fill="#004890" stroke="none" style="">
    <path d="M0 3660 l0 -3660 4500 0 4500 0 0 3660 0 3660 -4500 0 -4500 0 0 -3660z m6845 2756 c44 -7 94 -19 110 -26 97 -40 166 -82 233 -145 100 -93 152 -174 198 -305 18 -53 19 -107 19 -1695 l0 -1640 -22 -60 c-52 -146 -134 -259 -252 -349 -59 -45 -179 -106 -209 -106 -9 0 -39 -7 -66 -15 -43 -13 -351 -15 -2441 -15 -2090 0 -2398 2 -2441 15 -27 8 -57 15 -66 15 -32 0 -152 63 -218 113 -146 112 -240 267 -261 427 -10 83 -10 3167 1 3240 20 143 109 292 237 400 47 40 129 93 158 103 6 2 26 10 45 17 105 37 104 37 2535 39 1931 0 2375 -2 2440 -13z m1653 -4851 c3 -275 -3 -301 -92 -391 -34 -33 -73 -67 -88 -75 -107 -57 -181 -89 -205 -89 -10 0 -38 -8 -63 -18 -42 -16 -251 -17 -3625 -17 -3449 0 -3583 1 -3655 18 -41 11 -88 25 -105 32 -184 77 -267 144 -318 255 -18 40 -21 69 -25 263 -3 163 -1 221 8 232 11 13 492 15 4089 13 l4076 -3 3 -220z"/>
    <path d="M2067 5878 c-37 -8 -54 -18 -75 -46 l-27 -35 0 -1551 0 -1551 24 -32 c51 -68 -143 -63 2426 -63 2569 0 2375 -5 2426 63 l24 32 0 1550 c0 1534 0 1550 -20 1577 -11 15 -36 35 -55 45 -33 17 -150 18 -2355 19 -1520 1 -2337 -2 -2368 -8z"/>
    <path d="M4033 1503 c-18 -12 -23 -25 -23 -57 0 -35 4 -44 29 -59 26 -15 66 -17 376 -17 310 0 350 2 376 17 25 15 29 24 29 59 0 75 3 74 -407 73 -308 0 -361 -2 -380 -16z"/>
  </g>
  <rect x="262.445" y="-7.563" width="43.098" height="296.203" style="fill: rgb(28, 70, 144); stroke: rgba(0, 0, 0, 0);"/>
  <rect x="-13.255" y="-2.681" width="43.098" height="296.203" style="fill: rgb(28, 70, 144); stroke: rgba(0, 0, 0, 0);"/>
  <rect x="-16.853" y="-18.612" width="348.347" height="61.356" style="fill: rgb(28, 70, 144); stroke: rgba(0, 0, 0, 0);"/>
  <text style="fill: rgb(255, 255, 255); font-family: Arial, sans-serif; font-size: 30.7px; white-space: pre;" x="19.449" y="266.515">Student Resources</text>
  <text style="white-space: pre; fill: rgb(51, 51, 51); font-family: Arial, sans-serif; font-size: 28px;" x="158.348" y="161.065"> </text>
</svg>