<?xml version="1.0" encoding="utf-8"?>
<svg viewBox="0 0 500 500" xmlns="http://www.w3.org/2000/svg" xmlns:bx="https://boxy-svg.com">
  <defs>
    <linearGradient id="color-0" gradientUnits="userSpaceOnUse" gradientTransform="matrix(1.000121, 0, 0, 0.99988, -5.469351, -3.832113)" bx:pinned="true">
      <stop style="stop-color: color(srgb-linear 0.02 0.059 0.258);"/>
    </linearGradient>
  </defs>
  <g transform="matrix(0.166482, 0, 0, -0.166482, -0.297593, 501.090477)" fill="#1c4690" stroke="none" style="">
    <path d="M0 1515 l0 -1515 1500 0 1500 0 0 1515 0 1515 -1500 0 -1500 0 0&#10;-1515z m2120 1183 c33 -17 51 -35 68 -68 l22 -44 -1 -586 c0 -673 2 -657 -79&#10;-698 -42 -21 -57 -22 -217 -21 -95 0 -177 -2 -182 -6 -6 -3 -29 -45 -52 -93&#10;-23 -48 -68 -140 -100 -205 -33 -65 -59 -125 -59 -132 0 -7 -7 -15 -15 -19&#10;-19 -7 -45 3 -45 18 0 6 -26 65 -58 131 -33 66 -78 159 -101 207 -23 48 -46&#10;90 -52 93 -5 4 -87 6 -182 6 -160 -1 -175 0 -217 21 -81 41 -79 25 -79 698&#10;l-1 586 23 44 c16 33 34 51 67 68 l44 22 586 0 586 0 44 -22z m201 -2138 c5 0&#10;9 -9 9 -20 0 -17 -6 -20 -27 -18 -23 2 -29 -1 -31 -20 -3 -17 2 -25 17 -29 26&#10;-7 27 -29 1 -36 -17 -4 -20 -15 -22 -88 -3 -83 -3 -84 -30 -87 l-27 -3 -3 88&#10;c-2 70 -6 88 -18 88 -12 0 -15 -17 -16 -83 -1 -46 -4 -85 -7 -88 -10 -10 -237&#10;-8 -247 2 -7 7 -10 58 -8 135 l3 124 27 3 27 3 3 -118 3 -118 70 0 70 0 3 88&#10;3 87 38 0 c36 0 41 3 61 44 20 43 45 59 78 50 8 -2 18 -4 23 -4z m-1091 -125&#10;c0 -81 4 -132 12 -145 7 -10 10 -22 7 -25 -3 -3 -42 -6 -87 -7 -75 -2 -82 0&#10;-101 23 -36 45 -37 122 -2 165 20 25 66 36 98 23 19 -7 24 -5 29 15 3 13 5 30&#10;4 37 -4 29 1 39 20 39 19 0 20 -7 20 -125z m941 110 c0 -5 -12 -11 -26 -13&#10;-18 -2 -25 1 -25 13 0 12 7 15 25 13 14 -2 26 -7 26 -13z m-1515 -32 c31 -41&#10;-3 -59 -51 -27 -23 15 -27 15 -50 0 -14 -9 -25 -20 -25 -25 0 -15 35 -39 70&#10;-46 58 -13 79 -34 80 -81 0 -59 -23 -76 -100 -75 -61 1 -109 22 -110 49 0 17&#10;42 15 76 -3 40 -21 61 -19 75 7 10 19 8 25 -15 45 -15 13 -40 23 -56 23 -33 0&#10;-70 40 -70 75 0 12 9 34 21 49 18 23 27 26 81 26 46 0 64 -4 74 -17z m112 -11&#10;c2 -13 10 -26 18 -29 18 -7 18 -29 -1 -37 -22 -8 -21 -131 1 -140 30 -12 33&#10;-5 36 82 3 82 4 87 26 90 21 3 22 0 22 -66 0 -53 4 -75 19 -93 l18 -23 19 22&#10;c13 15 21 44 24 90 5 64 6 67 33 70 l27 3 0 -105 0 -104 -45 -2 c-52 -2 -78&#10;-2 -120 0 -16 1 -46 1 -67 -1 -56 -4 -68 12 -68 94 0 53 -4 75 -17 90 -17 18&#10;-17 19 0 28 9 6 17 21 17 35 0 22 4 25 28 22 19 -2 28 -9 30 -26z m990 0 c2&#10;-13 10 -26 18 -29 18 -7 18 -29 -1 -37 -11 -4 -15 -22 -15 -70 0 -62 2 -66 25&#10;-72 14 -3 25 -12 25 -19 0 -20 -48 -27 -78 -13 -25 12 -27 18 -30 88 -2 55 -7&#10;78 -19 87 -15 12 -15 14 0 31 9 10 17 29 17 41 0 18 5 22 28 19 19 -2 28 -9&#10;30 -26z m-325 -63 c17 -18 27 -40 27 -59 l0 -30 -69 0 c-39 0 -72 -4 -76 -10&#10;-6 -10 29 -50 43 -50 5 0 17 7 28 15 24 18 64 19 64 1 0 -22 -51 -50 -89 -49&#10;-45 1 -72 17 -94 54 -37 66 -3 141 73 160 37 9 62 1 93 -32z m1054 7 c13 -12&#10;24 -36 25 -56 l3 -35 -72 -3 c-78 -3 -90 -14 -54 -46 20 -18 61 -15 61 5 0 5&#10;14 9 30 9 37 0 38 -18 3 -44 -30 -22 -105 -25 -129 -5 -8 7 -22 25 -30 40 -56&#10;109 76 219 163 135z m-834 -1 c14 -20 17 -40 15 -102 -3 -77 -3 -78 -30 -81&#10;l-28 -3 0 85 c0 84 -1 86 -24 86 -32 0 -56 -52 -56 -119 0 -44 -3 -51 -20 -51&#10;-19 0 -20 7 -20 104 l0 104 73 1 c65 0 74 -2 90 -24z" style="paint-order: stroke; fill-rule: evenodd; stroke: rgb(186, 218, 85);"/>
    <path d="M1411 2491 c-17 -17 -19 -30 -14 -116 5 -75 2 -108 -11 -153 -10 -31&#10;-25 -79 -33 -107 -8 -27 -22 -66 -30 -85 -15 -31 -14 -37 1 -63 9 -16 16 -36&#10;16 -45 0 -9 7 -30 15 -46 8 -15 15 -33 15 -40 0 -6 6 -23 14 -38 8 -15 17 -40&#10;21 -57 4 -17 11 -33 16 -36 5 -4 9 -16 9 -28 0 -13 7 -33 16 -45 13 -19 24&#10;-22 76 -22 33 0 74 6 91 14 18 8 61 24 97 35 36 12 74 25 85 30 11 5 39 17 62&#10;26 47 20 58 40 48 91 -4 24 -1 43 11 63 16 28 16 30 -6 61 -21 29 -22 36 -11&#10;66 16 44 7 70 -30 90 -28 14 -29 17 -23 64 6 46 5 49 -23 64 -26 13 -35 13&#10;-74 0 -24 -8 -51 -18 -59 -23 -9 -5 -30 -12 -48 -15 -17 -4 -34 -12 -37 -17&#10;-4 -5 -17 -9 -30 -9 -20 0 -25 7 -31 35 -3 20 -4 62 -1 93 2 34 -1 71 -8 92&#10;-8 19 -16 47 -19 61 -7 31 -49 79 -71 79 -8 0 -24 -9 -34 -19z" style="paint-order: stroke; fill-rule: evenodd; stroke: rgb(186, 218, 85);"/>
    <path d="M1190 1985 c-14 -8 -31 -14 -38 -15 -16 0 -102 -39 -102 -45 0 -3 4&#10;-13 9 -23 19 -37 41 -93 41 -103 0 -6 6 -25 14 -42 8 -18 24 -61 35 -97 55&#10;-167 70 -185 133 -157 18 9 50 21 71 27 35 11 38 15 34 39 -4 24 -47 151 -66&#10;196 -21 49 -41 105 -62 168 -12 37 -27 67 -33 67 -6 -1 -22 -7 -36 -15z" style="paint-order: stroke; fill-rule: evenodd; stroke: rgb(186, 218, 85);"/>
    <path d="M1096 405 c-20 -31 -20 -49 0 -80 24 -37 45 -39 71 -9 27 32 28 36 7&#10;80 -20 42 -54 46 -78 9z" style="paint-order: stroke; fill-rule: evenodd; stroke: rgb(186, 218, 85);"/>
    <path d="M1329 421 c-28 -23 -17 -41 24 -41 44 0 59 11 44 31 -20 25 -44 29&#10;-68 10z" style="paint-order: stroke; fill-rule: evenodd; stroke: rgb(186, 218, 85);"/>
    <path d="M2387 422 c-27 -29 -20 -42 21 -42 34 0 72 14 62 23 -16 13 -55 37&#10;-61 37 -3 0 -13 -8 -22 -18z" style="paint-order: stroke; fill-rule: evenodd; stroke: rgb(186, 218, 85);"/>
  </g>
  <ellipse style="fill: url(&quot;#color-0&quot;); paint-order: fill; fill-rule: nonzero; transform-box: fill-box; transform-origin: 50% 50%; stroke: url(&quot;#color-0&quot;);" cx="244.561" cy="434.343" rx="191.166" ry="46.032" transform="matrix(0.999925, 0.01224, 0.003307, 1.000115, 0.000007, -0.000047)"/>
  <text style="fill: rgb(51, 51, 51); font-family: Arial, sans-serif; font-size: 64px; white-space: pre;" x="-2.832" y="20.111"><tspan x="64.31" y="454.78" style="font-size: 64px; word-spacing: 0px;"> </tspan><tspan style="fill: rgb(255, 255, 255); font-size: 64px; word-spacing: 0px;">Student Life</tspan></text>
</svg>